<svg xmlns="http://www.w3.org/2000/svg" width="860" height="533" viewBox="0 0 860 533">
  <rect width="860" height="533" rx="12" fill="#161b22"/>
  <text x="32" y="47" font-family="-apple-system,BlinkMacSystemFont,'Segoe UI',sans-serif" font-size="11" font-weight="600" letter-spacing="1" fill="#7d8590" text-transform="uppercase">ERP & BUSINESS SYSTEMS</text>

        <rect x="32" y="62" width="112" height="40" rx="9" fill="#21262d" stroke="#30363d" stroke-width="0.5"/>
        <svg x="45" y="72" width="20" height="20" viewBox="0 0 24 24">
          <path d="M4 0h16v8h-8zM4 8h8l8 8H4zM4 16h8v8z" fill="#0089FF"/>
        </svg>
        <text x="74" y="87" font-family="-apple-system,BlinkMacSystemFont,'Segoe UI',sans-serif" font-size="13" font-weight="500" fill="#e6edf3">ERPNext</text>
      

        <rect x="154" y="62" width="104" height="40" rx="9" fill="#21262d" stroke="#30363d" stroke-width="0.5"/>
        <svg x="167" y="72" width="20" height="20" viewBox="0 0 24 24">
          <path d="M4 0h16v8h-8zM4 8h8l8 8H4zM4 16h8v8z" fill="#0089FF"/>
        </svg>
        <text x="196" y="87" font-family="-apple-system,BlinkMacSystemFont,'Segoe UI',sans-serif" font-size="13" font-weight="500" fill="#e6edf3">Frappe</text>
      

        <rect x="268" y="62" width="128" height="40" rx="9" fill="#21262d" stroke="#30363d" stroke-width="0.5"/>
        <svg x="281" y="72" width="20" height="20" viewBox="0 0 24 24">
          <path d="M.95 14.184L12 20.403l9.919-5.55v2.21L12 22.662l-10.484-5.96-.565.308v.77L12 24l11.05-6.218v-4.317l-.515-.309L12 19.118l-9.867-5.653v-2.21L12 16.805l11.05-6.218V6.32l-.515-.308L12 11.974 2.647 6.681 12 1.388l7.76 4.368.668-.411v-.566L12 0 .95 6.27v.72L12 13.207l9.919-5.55v2.26L12 15.52 1.516 9.56l-.565.308Z" fill="#FF3621"/>
        </svg>
        <text x="310" y="87" font-family="-apple-system,BlinkMacSystemFont,'Segoe UI',sans-serif" font-size="13" font-weight="500" fill="#e6edf3">RECTS ERP</text>
      
<text x="32" y="158" font-family="-apple-system,BlinkMacSystemFont,'Segoe UI',sans-serif" font-size="11" font-weight="600" letter-spacing="1" fill="#7d8590" text-transform="uppercase">CLOUD — AWS</text>

        <rect x="32" y="173" width="80" height="40" rx="9" fill="#21262d" stroke="#30363d" stroke-width="0.5"/>
        <svg x="45" y="183" width="20" height="20" viewBox="0 0 24 24">
          <path d="M6.763 10.036c0 .296.032.535.088.71.064.176.144.368.256.576.04.072.056.144.056.208 0 .096-.056.192-.176.288l-.576.384c-.08.056-.16.08-.232.08-.096 0-.192-.048-.288-.136-.136-.136-.256-.28-.352-.432-.096-.16-.192-.336-.296-.552C4.36 12.448 3.576 12.864 2.6 12.864c-.696 0-1.256-.2-1.664-.6-.408-.4-.616-.928-.616-1.584 0-.696.248-1.264.752-1.688.504-.424 1.176-.64 2.032-.64.28 0 .568.024.872.064.304.04.624.104.96.176v-.608c0-.632-.136-1.072-.4-1.328-.272-.256-.728-.376-1.376-.376-.296 0-.6.032-.912.104-.312.072-.616.168-.912.288-.136.056-.24.088-.296.1-.056.016-.096.024-.128.024-.112 0-.168-.08-.168-.248v-.392c0-.128.016-.224.056-.28.04-.056.112-.112.216-.168.296-.152.648-.28 1.056-.384.408-.112.84-.168 1.296-.168.984 0 1.704.224 2.168.672.456.448.688 1.128.688 2.04v2.688zm-3.456 1.296c.272 0 .552-.048.848-.144.296-.096.56-.272.784-.512.136-.152.232-.32.28-.512.048-.192.08-.424.08-.696v-.336c-.24-.056-.496-.104-.76-.136-.264-.032-.52-.048-.776-.048-.552 0-.96.104-1.232.32-.272.216-.4.52-.4.912 0 .368.096.648.296.832.192.192.472.32.88.32zm6.648.888c-.144 0-.24-.024-.304-.08-.064-.048-.12-.16-.168-.312L7.44 4.448c-.048-.16-.072-.264-.072-.32 0-.128.064-.2.192-.2h.784c.152 0 .256.024.312.08.064.048.112.16.16.312l1.44 5.68 1.336-5.68c.04-.16.088-.264.152-.312.064-.056.176-.08.32-.08h.64c.152 0 .256.024.32.08.064.048.12.16.152.312l1.352 5.752 1.488-5.752c.048-.16.104-.264.16-.312.064-.056.168-.08.312-.08h.744c.128 0 .2.064.2.2 0 .04-.008.08-.016.128-.016.048-.032.12-.064.224l-2.072 7.384c-.048.16-.104.264-.168.312-.064.048-.168.08-.304.08h-.688c-.152 0-.256-.024-.32-.08-.064-.056-.12-.16-.16-.32L12.4 6.896l-1.32 5.512c-.048.16-.096.264-.16.32-.064.056-.176.08-.32.08zm11.112.24c-.416 0-.832-.048-1.232-.144-.4-.096-.712-.2-.92-.32-.128-.072-.216-.152-.248-.224-.032-.072-.048-.152-.048-.224v-.408c0-.168.064-.248.184-.248.048 0 .096.008.144.024.048.016.12.048.2.08.272.12.568.216.888.28.328.064.648.096.976.096.512 0 .912-.088 1.192-.264.28-.176.424-.432.424-.76 0-.224-.072-.408-.216-.56-.144-.152-.416-.288-.808-.416l-1.16-.36c-.584-.184-1.016-.456-1.288-.816-.272-.352-.408-.744-.408-1.16 0-.336.072-.632.216-.888.144-.256.336-.48.584-.664.248-.184.528-.32.848-.416.32-.096.656-.144 1.008-.144.176 0 .36.008.536.032.184.024.352.056.512.096.152.032.296.072.432.12.136.048.24.096.312.144.104.064.176.128.216.2.04.072.064.16.064.28v.376c0 .168-.064.256-.184.256-.064 0-.168-.032-.304-.096-.456-.2-.968-.304-1.536-.304-.464 0-.832.072-1.096.224-.264.152-.4.384-.4.712 0 .224.08.416.24.568.16.152.456.304.88.44l1.136.36c.576.184.992.44 1.24.768.248.328.368.704.368 1.12 0 .344-.072.656-.208.928-.144.272-.336.512-.592.704-.256.2-.56.344-.912.448-.368.112-.76.168-1.184.168z" fill="#FF9900"/>
        </svg>
        <text x="74" y="198" font-family="-apple-system,BlinkMacSystemFont,'Segoe UI',sans-serif" font-size="13" font-weight="500" fill="#e6edf3">AWS</text>
      

        <rect x="122" y="173" width="104" height="40" rx="9" fill="#21262d" stroke="#30363d" stroke-width="0.5"/>
        <svg x="135" y="183" width="20" height="20" viewBox="0 0 24 24">
          <path d="M5 3l3.057-3 11.943 12-11.943 12-3.057-3 9-9z" fill="#FF9900"/>
        </svg>
        <text x="164" y="198" font-family="-apple-system,BlinkMacSystemFont,'Segoe UI',sans-serif" font-size="13" font-weight="500" fill="#e6edf3">Lambda</text>
      

        <rect x="236" y="173" width="72" height="40" rx="9" fill="#21262d" stroke="#30363d" stroke-width="0.5"/>
        <svg x="249" y="183" width="20" height="20" viewBox="0 0 24 24">
          <path d="M12 2C6.48 2 2 6.48 2 12s4.48 10 10 10 10-4.48 10-10S17.52 2 12 2zm-1 14H9V8h2v8zm4 0h-2V8h2v8z" fill="#569A31"/>
        </svg>
        <text x="278" y="198" font-family="-apple-system,BlinkMacSystemFont,'Segoe UI',sans-serif" font-size="13" font-weight="500" fill="#e6edf3">S3</text>
      

        <rect x="318" y="173" width="120" height="40" rx="9" fill="#21262d" stroke="#30363d" stroke-width="0.5"/>
        <svg x="331" y="183" width="20" height="20" viewBox="0 0 24 24">
          <path d="M12 2C8.13 2 5 3.79 5 6v12c0 2.21 3.13 4 7 4s7-1.79 7-4V6c0-2.21-3.13-4-7-4zm0 2c3.31 0 5 1.34 5 2s-1.69 2-5 2-5-1.34-5-2 1.69-2 5-2zm0 16c-3.31 0-5-1.34-5-2v-2.23C8.41 16.55 10.12 17 12 17s3.59-.45 5-1.23V18c0 .66-1.69 2-5 2zm0-6c-3.31 0-5-1.34-5-2v-2.23C8.41 10.55 10.12 11 12 11s3.59-.45 5-1.23V12c0 .66-1.69 2-5 2z" fill="#4053D6"/>
        </svg>
        <text x="360" y="198" font-family="-apple-system,BlinkMacSystemFont,'Segoe UI',sans-serif" font-size="13" font-weight="500" fill="#e6edf3">DynamoDB</text>
      

        <rect x="448" y="173" width="145" height="40" rx="9" fill="#21262d" stroke="#30363d" stroke-width="0.5"/>
        <svg x="461" y="183" width="20" height="20" viewBox="0 0 24 24">
          <path d="M12 2L2 7l10 5 10-5-10-5zM2 17l10 5 10-5M2 12l10 5 10-5" fill="#FF4F8B"/>
        </svg>
        <text x="490" y="198" font-family="-apple-system,BlinkMacSystemFont,'Segoe UI',sans-serif" font-size="13" font-weight="500" fill="#e6edf3">API Gateway</text>
      

        <rect x="603" y="173" width="136" height="40" rx="9" fill="#21262d" stroke="#30363d" stroke-width="0.5"/>
        <svg x="616" y="183" width="20" height="20" viewBox="0 0 24 24">
          <path d="M12 2C6.48 2 2 6.48 2 12s4.48 10 10 10 10-4.48 10-10S17.52 2 12 2zm1 15h-2v-6h2v6zm0-8h-2V7h2v2z" fill="#FF4F8B"/>
        </svg>
        <text x="645" y="198" font-family="-apple-system,BlinkMacSystemFont,'Segoe UI',sans-serif" font-size="13" font-weight="500" fill="#e6edf3">CloudWatch</text>
      

        <rect x="32" y="222" width="80" height="40" rx="9" fill="#21262d" stroke="#30363d" stroke-width="0.5"/>
        <svg x="45" y="232" width="20" height="20" viewBox="0 0 24 24">
          <path d="M2 6l10-4 10 4v12l-10 4L2 18V6zm10 8l8-3.2V7.2L12 10 4 7.2V14.8L12 18z" fill="#FF9900"/>
        </svg>
        <text x="74" y="247" font-family="-apple-system,BlinkMacSystemFont,'Segoe UI',sans-serif" font-size="13" font-weight="500" fill="#e6edf3">EC2</text>
      

        <rect x="122" y="222" width="80" height="40" rx="9" fill="#21262d" stroke="#30363d" stroke-width="0.5"/>
        <svg x="135" y="232" width="20" height="20" viewBox="0 0 24 24">
          <path d="M12 2C9.24 2 7 4.24 7 7c0 2.85 2.01 5.22 4.68 5.86L9 21h6l-2.68-8.14C14.99 12.22 17 9.85 17 7c0-2.76-2.24-5-5-5zm0 2c1.65 0 3 1.35 3 3s-1.35 3-3 3-3-1.35-3-3 1.35-3 3-3z" fill="#DD344C"/>
        </svg>
        <text x="164" y="247" font-family="-apple-system,BlinkMacSystemFont,'Segoe UI',sans-serif" font-size="13" font-weight="500" fill="#e6edf3">IAM</text>
      

        <rect x="212" y="222" width="145" height="40" rx="9" fill="#21262d" stroke="#30363d" stroke-width="0.5"/>
        <svg x="225" y="232" width="20" height="20" viewBox="0 0 24 24">
          <path d="M22 12c0 5.52-4.48 10-10 10S2 17.52 2 12 6.48 2 12 2s10 4.48 10 10zm-10 6l6-6-6-6v4H8v4h4v4z" fill="#E7157B"/>
        </svg>
        <text x="254" y="247" font-family="-apple-system,BlinkMacSystemFont,'Segoe UI',sans-serif" font-size="13" font-weight="500" fill="#e6edf3">EventBridge</text>
      

        <rect x="367" y="222" width="128" height="40" rx="9" fill="#21262d" stroke="#30363d" stroke-width="0.5"/>
        <svg x="380" y="232" width="20" height="20" viewBox="0 0 24 24">
          <path d="M12 2L4 6v6c0 5.55 3.84 10.74 8 12 4.16-1.26 8-6.45 8-12V6l-8-4zm0 2.18l6 3V12c0 4.52-3.17 8.76-6 10.03-2.83-1.27-6-5.51-6-10.03V7.18l6-3z" fill="#DD344C"/>
        </svg>
        <text x="409" y="247" font-family="-apple-system,BlinkMacSystemFont,'Segoe UI',sans-serif" font-size="13" font-weight="500" fill="#e6edf3">GuardDuty</text>
      

        <rect x="505" y="222" width="136" height="40" rx="9" fill="#21262d" stroke="#30363d" stroke-width="0.5"/>
        <svg x="518" y="232" width="20" height="20" viewBox="0 0 24 24">
          <path d="M12 2C6.48 2 2 6.48 2 12s4.48 10 10 10 10-4.48 10-10S17.52 2 12 2zm4.5 14H8c-.55 0-1-.45-1-1s.45-1 1-1h8.5l-2.29-2.29c-.39-.39-.39-1.02 0-1.41.39-.39 1.02-.39 1.41 0l3.99 3.99c.39.39.39 1.02 0 1.41L15.91 19.7c-.39.39-1.02.39-1.41 0-.39-.39-.39-1.02 0-1.41L16.5 16z" fill="#FF9900"/>
        </svg>
        <text x="547" y="247" font-family="-apple-system,BlinkMacSystemFont,'Segoe UI',sans-serif" font-size="13" font-weight="500" fill="#e6edf3">CloudTrail</text>
      
<text x="32" y="318" font-family="-apple-system,BlinkMacSystemFont,'Segoe UI',sans-serif" font-size="11" font-weight="600" letter-spacing="1" fill="#7d8590" text-transform="uppercase">SECURITY</text>

        <rect x="32" y="333" width="136" height="40" rx="9" fill="#21262d" stroke="#30363d" stroke-width="0.5"/>
        <svg x="45" y="343" width="20" height="20" viewBox="0 0 24 24">
          <path d="M12.778 5.943s-1.97-.13-5.327.92c-3.42 1.07-5.36 2.587-5.36 2.587s5.098-2.847 10.852-3.008zm7.351 3.095l.257-.017s-1.468-1.78-4.278-2.648c1.58.642 2.954 1.493 4.021 2.665zm.42.74c.039-.068.166.217.263.337.004.024.01.039-.045.027-.005-.025-.013-.032-.013-.032s-.135-.08-.177-.137c-.041-.057-.049-.157-.028-.195zm3.448 8.479s.312-3.578-5.31-4.403a18.277 18.277 0 0 0-2.524-.187c-4.506.06-4.67-5.197-1.275-5.462 1.407-.116 3.087.643 4.73 1.408-.007.204.002.385.136.552.134.168.648.35.813.445.164.094.691.43 1.014.85.07-.131.654-.512.654-.512s-.14.003-.465-.119c-.326-.122-.713-.49-.722-.511-.01-.022-.015-.055.06-.07.059-.049-.072-.207-.13-.265-.058-.058-.445-.716-.454-.73-.009-.016-.012-.031-.04-.05-.085-.027-.46.04-.46.04s-.575-.283-.774-.893c.003.107-.099.224 0 .469-.3-.127-.558-.344-.762-.88-.12.305 0 .499 0 .499s-.707-.198-.82-.85c-.124.293 0 .469 0 .469s-1.153-.602-3.069-.61c-1.283-.118-1.55-2.374-1.43-2.754 0 0-1.85-.975-5.493-1.406-3.642-.43-6.628-.065-6.628-.065s6.45-.31 11.617 1.783c.176.785.704 2.094.989 2.723-.815.563-1.733 1.092-1.876 2.97-.143 1.878 1.472 3.53 3.474 3.58 1.9.102 3.214.116 4.806.942 1.52.84 2.766 3.4 2.89 5.703.132-1.709-.509-5.383-3.5-6.498 4.181.732 4.549 3.832 4.549 3.832zM12.68 5.663l-.15-.485s-2.484-.441-5.822-.204C3.37 5.211 0 6.38 0 6.38s6.896-1.735 12.68-.717Z" fill="#557C94"/>
        </svg>
        <text x="74" y="358" font-family="-apple-system,BlinkMacSystemFont,'Segoe UI',sans-serif" font-size="13" font-weight="500" fill="#e6edf3">Kali Linux</text>
      

        <rect x="178" y="333" width="128" height="40" rx="9" fill="#21262d" stroke="#30363d" stroke-width="0.5"/>
        <svg x="191" y="343" width="20" height="20" viewBox="0 0 24 24">
          <path d="m2.95 0c-1.62 0-2.95 1.32-2.95 2.95v18.1c0 1.63 1.32 2.95 2.95 2.95h18.1c1.62 0 2.95-1.32 2.95-2.95v-18.1c-.00024-1.63-1.32-2.95-2.95-2.95zm0 1.09h18.1c1.04 0 1.85.818 1.85 1.86v14h-5.27c-.335-.796-2.57-6.47.283-10.9a.516.517 0 0 0-.443-.794c-5.24.0827-8.2 3.19-9.74 6.21-1.35 2.64-1.63 4.91-1.69 5.53h-4.95v-14c0-1.04.817-1.86 1.85-1.86zm13.6 5.24c-2.62 5.24.248 11.4.248 11.4a.516.517 0 0 0 .469.301h5.62v3.05c0 1.04-.817 1.86-1.85 1.86h-18.1c-1.04 0-1.85-.818-1.85-1.86v-3.05h5.39a.516.517 0 0 0 .514-.477s.226-2.8 1.66-5.62c1.34-2.62 3.67-5.17 7.91-5.57z" fill="#1679A7"/>
        </svg>
        <text x="220" y="358" font-family="-apple-system,BlinkMacSystemFont,'Segoe UI',sans-serif" font-size="13" font-weight="500" fill="#e6edf3">Wireshark</text>
      

        <rect x="316" y="333" width="96" height="40" rx="9" fill="#21262d" stroke="#30363d" stroke-width="0.5"/>
        <svg x="329" y="343" width="20" height="20" viewBox="0 0 24 24">
          <path d="M12.504 0c-.155 0-.315.008-.48.021-4.226.333-3.105 4.807-3.17 6.298-.076 1.092-.3 1.953-1.05 3.02-.885 1.051-2.127 2.75-2.716 4.521-.278.832-.41 1.684-.287 2.489a.424.424 0 00-.11.135c-.26.268-.45.6-.663.839-.199.199-.485.267-.797.4-.313.136-.658.269-.864.68-.09.189-.136.394-.132.602 0 .199.027.4.055.536.058.399.116.728.04.97-.249.68-.28 1.145-.106 1.484.174.334.535.47.94.601.81.2 1.91.135 2.774.6.926.466 1.866.67 2.616.47.526-.116.97-.464 1.208-.946.587-.003 1.23-.269 2.26-.334.699-.058 1.574.267 2.577.2.025.134.063.198.114.333l.003.003c.391.778 1.113 1.132 1.884 1.071.771-.06 1.592-.536 2.257-1.306.631-.765 1.683-1.084 2.378-1.503.348-.199.629-.469.649-.853.023-.4-.2-.811-.714-1.376v-.097l-.003-.003c-.17-.2-.25-.535-.338-.926-.085-.401-.182-.786-.492-1.046h-.003c-.059-.054-.123-.067-.188-.135a.357.357 0 00-.19-.064c.431-1.278.264-2.55-.173-3.694-.533-1.41-1.465-2.638-2.175-3.483-.796-1.005-1.576-1.957-1.56-3.368.026-2.152.236-6.133-3.544-6.139zm.529 3.405h.013c.213 0 .396.062.584.198.19.135.33.332.438.533.105.259.158.459.166.724 0-.02.006-.04.006-.06v.105a.086.086 0 01-.004-.021l-.004-.024a1.807 1.807 0 01-.15.706.953.953 0 01-.213.335.71.71 0 00-.088-.042c-.104-.045-.198-.064-.284-.133a1.312 1.312 0 00-.22-.066c.05-.06.146-.133.183-.198.053-.128.082-.264.088-.402v-.02a1.21 1.21 0 00-.061-.4c-.045-.134-.101-.2-.183-.333-.084-.066-.167-.132-.267-.132h-.016c-.093 0-.176.03-.262.132a.8.8 0 00-.205.334 1.18 1.18 0 00-.09.4v.019c.002.089.008.179.02.267-.193-.067-.438-.135-.607-.202a1.635 1.635 0 01-.018-.2v-.02a1.772 1.772 0 01.15-.768c.082-.22.232-.406.43-.533a.985.985 0 01.594-.2zm-2.962.059h.036c.142 0 .27.048.399.135.146.129.264.288.344.465.09.199.14.4.153.667v.004c.007.134.006.2-.002.266v.08c-.03.007-.056.018-.083.024-.152.055-.274.135-.393.2.012-.09.013-.18.003-.267v-.015c-.012-.133-.04-.2-.082-.333a.613.613 0 00-.166-.267.248.248 0 00-.183-.064h-.021c-.071.006-.13.04-.186.132a.552.552 0 00-.12.27.944.944 0 00-.023.33v.015c.012.135.037.2.08.334.046.134.098.2.166.268.01.009.02.018.034.024-.07.057-.117.07-.176.136a.304.304 0 01-.131.068 2.62 2.62 0 01-.275-.402 1.772 1.772 0 01-.155-.667 1.759 1.759 0 01.08-.668 1.43 1.43 0 01.283-.535c.128-.133.26-.2.418-.2zm1.37 1.706c.332 0 .733.065 1.216.399.293.2.523.269 1.052.468h.003c.255.136.405.266.478.399v-.131a.571.571 0 01.016.47c-.123.31-.516.643-1.063.842v.002c-.268.135-.501.333-.775.465-.276.135-.588.292-1.012.267a1.139 1.139 0 01-.448-.067 3.566 3.566 0 01-.322-.198c-.195-.135-.363-.332-.612-.465v-.005h-.005c-.4-.246-.616-.512-.686-.71-.07-.268-.005-.47.193-.6.224-.135.38-.271.483-.336.104-.074.143-.102.176-.131h.002v-.003c.169-.202.436-.47.839-.601.139-.036.294-.065.466-.065zm2.8 2.142c.358 1.417 1.196 3.475 1.735 4.473.286.534.855 1.659 1.102 3.024.156-.005.33.018.513.064.646-1.671-.546-3.467-1.089-3.966-.22-.2-.232-.335-.123-.335.59.534 1.365 1.572 1.646 2.757.13.535.16 1.104.021 1.67.067.028.135.06.205.067 1.032.534 1.413.938 1.23 1.537v-.043c-.06-.003-.12 0-.18 0h-.016c.151-.467-.182-.825-1.065-1.224-.915-.4-1.646-.336-1.77.465-.008.043-.013.066-.018.135-.068.023-.139.053-.209.064-.43.268-.662.669-.793 1.187-.13.533-.17 1.156-.205 1.869v.003c-.02.334-.17.838-.319 1.35-1.5 1.072-3.58 1.538-5.348.334a2.645 2.645 0 00-.402-.533 1.45 1.45 0 00-.275-.333c.182 0 .338-.03.465-.067a.615.615 0 00.314-.334c.108-.267 0-.697-.345-1.163-.345-.467-.931-.995-1.788-1.521-.63-.4-.986-.87-1.15-1.396-.165-.534-.143-1.085-.015-1.645.245-1.07.873-2.11 1.274-2.763.107-.065.037.135-.408.974-.396.751-1.14 2.497-.122 3.854a8.123 8.123 0 01.647-2.876c.564-1.278 1.743-3.504 1.836-5.268.048.036.217.135.289.202.218.133.38.333.59.465.21.201.477.335.876.335.039.003.075.006.11.006.412 0 .73-.134.997-.268.29-.134.52-.334.74-.4h.005c.467-.135.835-.402 1.044-.7zm2.185 8.958c.037.6.343 1.245.882 1.377.588.134 1.434-.333 1.791-.765l.211-.01c.315-.007.577.01.847.268l.003.003c.208.199.305.53.391.876.085.4.154.78.409 1.066.486.527.645.906.636 1.14l.003-.007v.018l-.003-.012c-.015.262-.185.396-.498.595-.63.401-1.746.712-2.457 1.57-.618.737-1.37 1.14-2.036 1.191-.664.053-1.237-.2-1.574-.898l-.005-.003c-.21-.4-.12-1.025.056-1.69.176-.668.428-1.344.463-1.897.037-.714.076-1.335.195-1.814.12-.465.308-.797.641-.984l.045-.022zm-10.814.049h.01c.053 0 .105.005.157.014.376.055.706.333 1.023.752l.91 1.664.003.003c.243.533.754 1.064 1.189 1.637.434.598.77 1.131.729 1.57v.006c-.057.744-.48 1.148-1.125 1.294-.645.135-1.52.002-2.395-.464-.968-.536-2.118-.469-2.857-.602-.369-.066-.61-.2-.723-.4-.11-.2-.113-.602.123-1.23v-.004l.002-.003c.117-.334.03-.752-.027-1.118-.055-.401-.083-.71.043-.94.16-.334.396-.4.69-.533.294-.135.64-.202.915-.47h.002v-.002c.256-.268.445-.601.668-.838.19-.201.38-.336.663-.336zm7.159-9.074c-.435.201-.945.535-1.488.535-.542 0-.97-.267-1.28-.466-.154-.134-.28-.268-.373-.335-.164-.134-.144-.333-.074-.333.109.016.129.134.199.2.096.066.215.2.36.333.292.2.68.467 1.167.467.485 0 1.053-.267 1.398-.466.195-.135.445-.334.648-.467.156-.136.149-.267.279-.267.128.016.034.134-.147.332a8.097 8.097 0 01-.69.468zm-1.082-1.583V5.64c-.006-.02.013-.042.029-.05.074-.043.18-.027.26.004.063 0 .16.067.15.135-.006.049-.085.066-.135.066-.055 0-.092-.043-.141-.068-.052-.018-.146-.008-.163-.065zm-.551 0c-.02.058-.113.049-.166.066-.047.025-.086.068-.14.068-.05 0-.13-.02-.136-.068-.01-.066.088-.133.15-.133.08-.031.184-.047.259-.005.019.009.036.03.03.05v.02h.003z" fill="#E8C84A"/>
        </svg>
        <text x="358" y="358" font-family="-apple-system,BlinkMacSystemFont,'Segoe UI',sans-serif" font-size="13" font-weight="500" fill="#e6edf3">Linux</text>
      
<text x="32" y="429" font-family="-apple-system,BlinkMacSystemFont,'Segoe UI',sans-serif" font-size="11" font-weight="600" letter-spacing="1" fill="#7d8590" text-transform="uppercase">AUTOMATION & DATA</text>

        <rect x="32" y="444" width="104" height="40" rx="9" fill="#21262d" stroke="#30363d" stroke-width="0.5"/>
        <svg x="45" y="454" width="20" height="20" viewBox="0 0 24 24">
          <path d="M14.25.18l.9.2.73.26.59.3.45.32.34.34.25.34.16.33.1.3.04.26.02.2-.01.13V8.5l-.05.63-.13.55-.21.46-.26.38-.3.31-.33.25-.35.19-.35.14-.33.1-.3.07-.26.04-.21.02H8.77l-.69.05-.59.14-.5.22-.41.27-.33.32-.27.35-.2.36-.15.37-.1.35-.07.32-.04.27-.02.21v3.06H3.17l-.21-.03-.28-.07-.32-.12-.35-.18-.36-.26-.36-.36-.35-.46-.32-.59-.28-.73-.21-.88-.14-1.05-.05-1.23.06-1.22.16-1.04.24-.87.32-.71.36-.57.4-.44.42-.33.42-.24.4-.16.36-.1.32-.05.24-.01h.16l.06.01h8.16v-.83H6.18l-.01-2.75-.02-.37.05-.34.11-.31.17-.28.25-.26.31-.23.38-.2.44-.18.51-.15.58-.12.64-.1.71-.06.77-.04.84-.02 1.27.05zm-6.3 1.98l-.23.33-.08.41.08.41.23.34.33.22.41.09.41-.09.33-.22.23-.34.08-.41-.08-.41-.23-.33-.33-.22-.41-.09-.41.09zm13.09 3.95l.28.06.32.12.35.18.36.27.36.35.35.47.32.59.28.73.21.88.14 1.04.05 1.23-.06 1.23-.16 1.04-.24.86-.32.71-.36.57-.4.45-.42.33-.42.24-.4.16-.36.09-.32.05-.24.02-.16-.01h-8.22v.82h5.84l.01 2.76.02.36-.05.34-.11.31-.17.29-.25.25-.31.24-.38.2-.44.17-.51.15-.58.13-.64.09-.71.07-.77.04-.84.01-1.27-.04-1.07-.14-.9-.2-.73-.25-.59-.3-.45-.33-.34-.34-.25-.34-.16-.33-.1-.3-.04-.25-.02-.2.01-.13v-5.34l.05-.64.13-.54.21-.46.26-.38.3-.32.33-.24.35-.2.35-.14.33-.1.3-.06.26-.04.21-.02.13-.01h5.84l.69-.05.59-.14.5-.21.41-.28.33-.32.27-.35.2-.36.15-.36.1-.35.07-.32.04-.28.02-.21V6.07h2.09l.14.01zm-6.47 14.25l-.23.33-.08.41.08.41.23.33.33.23.41.08.41-.08.33-.23.23-.33.08-.41-.08-.41-.23-.33-.33-.23-.41-.08-.41.08z" fill="#3776AB"/>
        </svg>
        <text x="74" y="469" font-family="-apple-system,BlinkMacSystemFont,'Segoe UI',sans-serif" font-size="13" font-weight="500" fill="#e6edf3">Python</text>
      

        <rect x="146" y="444" width="88" height="40" rx="9" fill="#21262d" stroke="#30363d" stroke-width="0.5"/>
        <svg x="159" y="454" width="20" height="20" viewBox="0 0 24 24">
          <path d="M21.038,4.9l-7.577-4.498C13.009,0.134,12.505,0,12,0c-0.505,0-1.009,0.134-1.462,0.403L2.961,4.9 C2.057,5.437,1.5,6.429,1.5,7.503v8.995c0,1.073,0.557,2.066,1.462,2.603l7.577,4.497C10.991,23.866,11.495,24,12,24 c0.505,0,1.009-0.134,1.461-0.402l7.577-4.497c0.904-0.537,1.462-1.529,1.462-2.603V7.503C22.5,6.429,21.943,5.437,21.038,4.9z M15.17,18.946l0.013,0.646c0.001,0.078-0.05,0.167-0.111,0.198l-0.383,0.22c-0.061,0.031-0.111-0.007-0.112-0.085L14.57,19.29 c-0.328,0.136-0.66,0.169-0.872,0.084c-0.04-0.016-0.057-0.075-0.041-0.142l0.139-0.584c0.011-0.046,0.036-0.092,0.069-0.121 c0.012-0.011,0.024-0.02,0.036-0.026c0.022-0.011,0.043-0.014,0.062-0.006c0.229,0.077,0.521,0.041,0.802-0.101 c0.357-0.181,0.596-0.545,0.592-0.907c-0.003-0.328-0.181-0.465-0.613-0.468c-0.55,0.001-1.064-0.107-1.072-0.917 c-0.007-0.667,0.34-1.361,0.889-1.8l-0.007-0.652c-0.001-0.08,0.048-0.168,0.111-0.2l0.37-0.236 c0.061-0.031,0.111,0.007,0.112,0.087l0.006,0.653c0.273-0.109,0.511-0.138,0.726-0.088c0.047,0.012,0.067,0.076,0.048,0.151 l-0.144,0.578c-0.011,0.044-0.036,0.088-0.065,0.116c-0.012,0.012-0.025,0.021-0.038,0.028c-0.019,0.01-0.038,0.013-0.057,0.009 c-0.098-0.022-0.332-0.073-0.699,0.113c-0.385,0.195-0.52,0.53-0.517,0.778c0.003,0.297,0.155,0.387,0.681,0.396 c0.7,0.012,1.003,0.318,1.01,1.023C16.105,17.747,15.736,18.491,15.17,18.946z M19.143,17.859c0,0.06-0.008,0.116-0.058,0.145 l-1.916,1.164c-0.05,0.029-0.09,0.004-0.09-0.056v-0.494c0-0.06,0.037-0.093,0.087-0.122l1.887-1.129 c0.05-0.029,0.09-0.004,0.09,0.056V17.859z M20.459,6.797l-7.168,4.427c-0.894,0.523-1.553,1.109-1.553,2.187v8.833 c0,0.645,0.26,1.063,0.66,1.184c-0.131,0.023-0.264,0.039-0.398,0.039c-0.42,0-0.833-0.114-1.197-0.33L3.226,18.64 c-0.741-0.44-1.201-1.261-1.201-2.142V7.503c0-0.881,0.46-1.702,1.201-2.142l7.577-4.498c0.363-0.216,0.777-0.33,1.197-0.33 c0.419,0,0.833,0.114,1.197,0.33l7.577,4.498c0.624,0.371,1.046,1.013,1.164,1.732C21.686,6.557,21.12,6.411,20.459,6.797z" fill="#4EAA25"/>
        </svg>
        <text x="188" y="469" font-family="-apple-system,BlinkMacSystemFont,'Segoe UI',sans-serif" font-size="13" font-weight="500" fill="#e6edf3">Bash</text>
      

        <rect x="244" y="444" width="96" height="40" rx="9" fill="#21262d" stroke="#30363d" stroke-width="0.5"/>
        <svg x="257" y="454" width="20" height="20" viewBox="0 0 24 24">
          <path d="M16.405 5.501c-.115 0-.193.014-.274.033v.013h.014c.054.104.146.18.214.273.054.107.1.214.154.32l.014-.015c.094-.066.14-.172.14-.333-.04-.047-.046-.094-.08-.14-.04-.067-.126-.1-.18-.153zM5.77 18.695h-.927a50.854 50.854 0 00-.27-4.41h-.008l-1.41 4.41H2.45l-1.4-4.41h-.01a72.892 72.892 0 00-.195 4.41H0c.055-1.966.192-3.81.41-5.53h1.15l1.335 4.064h.008l1.347-4.064h1.095c.242 2.015.384 3.86.428 5.53zm4.017-4.08c-.378 2.045-.876 3.533-1.492 4.46-.482.716-1.01 1.073-1.583 1.073-.153 0-.34-.046-.566-.138v-.494c.11.017.24.026.386.026.268 0 .483-.075.647-.222.197-.18.295-.382.295-.605 0-.155-.077-.47-.23-.944L6.23 14.615h.91l.727 2.36c.164.536.233.91.205 1.123.4-1.064.678-2.227.835-3.483zm12.325 4.08h-2.63v-5.53h.885v4.85h1.745zm-3.32.135l-1.016-.5c.09-.076.177-.158.255-.25.433-.506.648-1.258.648-2.253 0-1.83-.718-2.746-2.155-2.746-.704 0-1.254.232-1.65.697-.43.508-.646 1.256-.646 2.245 0 .972.19 1.686.574 2.14.35.41.877.615 1.583.615.264 0 .506-.033.725-.098l1.325.772.36-.622zM15.5 17.588c-.225-.36-.337-.94-.337-1.736 0-1.393.424-2.09 1.27-2.09.443 0 .77.167.977.5.224.362.336.936.336 1.723 0 1.404-.424 2.108-1.27 2.108-.445 0-.77-.167-.978-.5zm-1.658-.425c0 .47-.172.856-.516 1.156-.344.3-.803.45-1.384.45-.543 0-1.064-.172-1.573-.515l.237-.476c.438.22.833.328 1.19.328.332 0 .593-.073.783-.22a.754.754 0 00.3-.615c0-.33-.23-.61-.648-.845-.388-.213-1.163-.657-1.163-.657-.422-.307-.632-.636-.632-1.177 0-.45.157-.81.47-1.085.315-.278.72-.415 1.22-.415.512 0 .98.136 1.4.41l-.213.476a2.726 2.726 0 00-1.064-.23c-.283 0-.502.068-.654.206a.685.685 0 00-.248.524c0 .328.234.61.666.85.393.215 1.187.67 1.187.67.433.305.648.63.648 1.168zm9.382-5.852c-.535-.014-.95.04-1.297.188-.1.04-.26.04-.274.167.055.053.063.14.11.214.08.134.218.313.346.407.14.11.28.216.427.31.26.16.555.255.81.416.145.094.293.213.44.313.073.05.12.14.214.172v-.02c-.046-.06-.06-.147-.105-.214-.067-.067-.134-.127-.2-.193a3.223 3.223 0 00-.695-.675c-.214-.146-.682-.35-.77-.595l-.013-.014c.146-.013.32-.066.46-.106.227-.06.435-.047.67-.106.106-.027.213-.06.32-.094v-.06c-.12-.12-.21-.283-.334-.395a8.867 8.867 0 00-1.104-.823c-.21-.134-.476-.22-.697-.334-.08-.04-.214-.06-.26-.127-.12-.146-.19-.34-.275-.514a17.69 17.69 0 01-.547-1.163c-.12-.262-.193-.523-.34-.763-.69-1.137-1.437-1.826-2.586-2.5-.247-.14-.543-.2-.856-.274-.167-.008-.334-.02-.5-.027-.11-.047-.216-.174-.31-.235-.38-.24-1.364-.76-1.644-.072-.18.434.267.862.422 1.082.115.153.26.328.34.5.047.116.06.235.107.356.106.294.207.622.347.897.073.14.153.287.247.413.054.073.146.107.167.227-.094.136-.1.334-.154.5-.24.757-.146 1.693.194 2.25.107.166.362.534.703.393.3-.12.234-.5.32-.835.02-.08.007-.133.048-.187v.015c.094.188.188.367.274.555.206.328.566.668.867.895.16.12.287.328.487.402v-.02h-.015c-.043-.058-.1-.086-.154-.133a3.445 3.445 0 01-.35-.4 8.76 8.76 0 01-.747-1.218c-.11-.21-.202-.436-.29-.643-.04-.08-.04-.2-.107-.24-.1.146-.247.273-.32.453-.127.288-.14.642-.188 1.01-.027.007-.014 0-.027.014-.214-.052-.287-.274-.367-.46-.2-.475-.233-1.238-.06-1.785.047-.14.247-.582.167-.716-.042-.127-.174-.2-.247-.303a2.478 2.478 0 01-.24-.427c-.16-.374-.24-.788-.414-1.162-.08-.173-.22-.354-.334-.513-.127-.18-.267-.307-.368-.52-.033-.073-.08-.194-.027-.274.014-.054.042-.075.094-.09.088-.072.335.022.422.062.247.1.455.194.662.334.094.066.195.193.315.226h.14c.214.047.455.014.655.073.355.114.675.28.962.46a5.953 5.953 0 012.085 2.286c.08.154.115.295.188.455.14.33.313.663.455.982.14.315.275.636.476.897.1.14.502.213.682.286.133.06.34.115.46.188.23.14.454.3.67.454.11.076.443.243.463.378z" fill="#4479A1"/>
        </svg>
        <text x="286" y="469" font-family="-apple-system,BlinkMacSystemFont,'Segoe UI',sans-serif" font-size="13" font-weight="500" fill="#e6edf3">MySQL</text>
      

        <rect x="350" y="444" width="112" height="40" rx="9" fill="#21262d" stroke="#30363d" stroke-width="0.5"/>
        <svg x="363" y="454" width="20" height="20" viewBox="0 0 24 24">
          <path d="M17.193 9.555c-1.264-5.58-4.252-7.414-4.573-8.115-.28-.394-.53-.954-.735-1.44-.036.495-.055.685-.523 1.184-.723.566-4.438 3.682-4.74 10.02-.282 5.912 4.27 9.435 4.888 9.884l.07.05A73.49 73.49 0 0111.91 24h.481c.114-1.032.284-2.056.51-3.07.417-.296.604-.463.85-.693a11.342 11.342 0 003.639-8.464c.01-.814-.103-1.662-.197-2.218zm-5.336 8.195s0-8.291.275-8.29c.213 0 .49 10.695.49 10.695-.381-.045-.765-1.76-.765-2.405z" fill="#47A248"/>
        </svg>
        <text x="392" y="469" font-family="-apple-system,BlinkMacSystemFont,'Segoe UI',sans-serif" font-size="13" font-weight="500" fill="#e6edf3">MongoDB</text>
      

        <rect x="472" y="444" width="104" height="40" rx="9" fill="#21262d" stroke="#30363d" stroke-width="0.5"/>
        <svg x="485" y="454" width="20" height="20" viewBox="0 0 24 24">
          <path d="M.5 10.1a.505.505 0 00-.197.048.497.497 0 00-.25.68l1.138 2.475c.179.38.38.592.721.592.342 0 .542-.22.72-.592l1.003-2.186a.144.144 0 01.144-.092.16.16 0 01.157.16v2.118a.535.535 0 101.066 0v-1.73a.531.531 0 01.566-.552.52.52 0 01.541.551v1.73a.531.531 0 00.53.593.539.539 0 00.535-.592v-1.73a.531.531 0 01.564-.552.52.52 0 01.543.551v1.73a.531.531 0 00.528.593.535.535 0 00.535-.592v-1.969a1.234 1.234 0 00-1.283-1.23 1.647 1.647 0 00-1.14.486 1.26 1.26 0 00-1.095-.483 1.807 1.807 0 00-1.074.483 1.287 1.287 0 00-.961-.483 1.177 1.177 0 00-1.158.786l-.729 1.716-.933-2.203.011-.004A.505.505 0 00.5 10.1zm18.43.06a.27.27 0 00-.266.274h.002v3.142a.27.27 0 10.535 0v-1.222c0-1.037.571-1.56 1.27-1.643a.266.266 0 00.238-.274.258.258 0 00-.266-.269 1.465 1.465 0 00-1.242.88v-.614a.266.266 0 00-.271-.274zm-6.735.008a.273.273 0 00-.25.217l-.912 2.627-.902-2.62a.28.28 0 00-.274-.22.266.266 0 00-.27.258.493.493 0 00.034.144l1.09 3.037.02-.007a.319.319 0 00.298.242.3.3 0 00.293-.242l.903-2.583.896 2.583a.3.3 0 00.293.242h.018a.319.319 0 00.293-.242l1.097-3.038a.512.512 0 00.033-.144.258.258 0 00-.265-.25.262.262 0 00-.258.209l-.918 2.63-.904-2.626a.285.285 0 00-.278-.217h-.025a.273.273 0 00-.012 0zm10.168.008a1.75 1.75 0 00-1.691 1.851 1.765 1.765 0 001.76 1.858l-.008.013a1.784 1.784 0 001.33-.539.228.228 0 00.082-.17.228.228 0 00-.379-.168 1.435 1.435 0 01-1.018.415 1.237 1.237 0 01-1.24-1.207h2.555a.247.247 0 00.246-.247c0-.945-.593-1.806-1.637-1.806zm-5.744.002a1.571 1.571 0 00-.158.006 2.384 2.384 0 00-1.078.205.22.22 0 00-.143.222.24.24 0 00.235.229.266.266 0 00.095-.024 1.822 1.822 0 01.834-.162c.691 0 1.07.334 1.07.979v.125a3.796 3.796 0 00-1.103-.15c-.892 0-1.52.4-1.52 1.16l-.003-.004c0 .736.671 1.117 1.34 1.117a1.575 1.575 0 001.298-.62v.343a.247.247 0 00.254.25.254.254 0 00.258-.262v-1.983a1.416 1.416 0 00-.379-1.046 1.571 1.571 0 00-1-.385zm5.719.43c.714 0 1.085.565 1.139 1.214h-2.278a1.222 1.222 0 011.139-1.215zm-5.885 1.382a3.75 3.75 0 011.057.153V12.49c0 .57-.539.973-1.2.973-.485 0-.904-.261-.904-.713 0-.467.375-.76 1.047-.76Z" fill="#607078"/>
        </svg>
        <text x="514" y="469" font-family="-apple-system,BlinkMacSystemFont,'Segoe UI',sans-serif" font-size="13" font-weight="500" fill="#e6edf3">VMware</text>
      

        <rect x="586" y="444" width="136" height="40" rx="9" fill="#21262d" stroke="#30363d" stroke-width="0.5"/>
        <svg x="599" y="454" width="20" height="20" viewBox="0 0 24 24">
          <path d="M0 1.758 5.182 20c.129.455.25.691.421.945.063.092.13.179.202.264.173.204.37.378.59.525.243.163.49.286.763.371.324.1.61.137.99.137h4.327l1.918-6.615h6.798v3.699a.11.11 0 0 1-.109.11h-4.88l-.813 2.806h5.654a2.92 2.92 0 0 0 1.95-.725A2.903 2.903 0 0 0 24 19.285v-6.47H12.28l-1.919 6.614H7.937L3.715 4.564h2.922l1.546 5.444H11.1l-2.343-8.25zm15.496 0-2.4 8.25H24v-5.29a2.962 2.962 0 0 0-1.825-2.741 3.044 3.044 0 0 0-1.129-.22zm2.11 2.806h3.476a.11.11 0 0 1 .11.112V7.2h-4.354z" fill="#183A61"/>
        </svg>
        <text x="628" y="469" font-family="-apple-system,BlinkMacSystemFont,'Segoe UI',sans-serif" font-size="13" font-weight="500" fill="#e6edf3">VirtualBox</text>
      
</svg>